<?xml version="1.0" encoding="UTF-8" standalone="no"?>
<!DOCTYPE svg PUBLIC "-//W3C//DTD SVG 1.1//EN" "http://www.w3.org/Graphics/SVG/1.1/DTD/svg11.dtd">
<svg width="100%" height="100%" viewBox="0 0 512 512" version="1.1" xmlns="http://www.w3.org/2000/svg" xmlns:xlink="http://www.w3.org/1999/xlink" xml:space="preserve" xmlns:serif="http://www.serif.com/" style="fill-rule:evenodd;clip-rule:evenodd;stroke-linejoin:round;stroke-miterlimit:2;">
    <g transform="matrix(1,0,0,1,-2379.82,-26.422)">
        <g id="Profile" transform="matrix(1,0,0,1,2379.82,26.422)">
            <rect x="0" y="0" width="512" height="512" style="fill:none;"/>
            <g transform="matrix(2.82472,0,0,2.82472,-7017.23,-10889.9)">
                <path d="M2655.7,3905.43C2655.7,3883.11 2637.59,3865 2615.27,3865L2534.43,3865C2512.11,3865 2494,3883.11 2494,3905.43L2494,3986.27C2494,4008.59 2512.11,4026.7 2534.43,4026.7L2615.27,4026.7C2637.59,4026.7 2655.7,4008.59 2655.7,3986.27L2655.7,3905.43Z" style="fill:rgb(247,148,44);"/>
            </g>
            <g transform="matrix(5.14789,0,0,5.14789,-2995.66,-2205.95)">
                <path d="M640.553,457.205C641.026,457.205 641.441,457.383 641.796,457.738C642.151,458.093 642.329,458.508 642.329,458.981L642.329,461.822C643.512,460.354 644.968,459.218 646.697,458.413C648.425,457.608 650.425,457.205 652.698,457.205L655.752,457.205C656.226,457.205 656.628,457.371 656.959,457.703C657.291,458.034 657.457,458.46 657.457,458.981L657.457,465.089C657.457,465.61 657.291,466.036 656.959,466.368C656.628,466.699 656.226,466.865 655.752,466.865L649.502,466.865C647.419,466.865 645.785,467.445 644.601,468.605C643.418,469.765 642.826,471.41 642.826,473.541L642.826,492.362C642.826,492.883 642.66,493.309 642.329,493.641C641.997,493.972 641.571,494.138 641.05,494.138L633.399,494.138C632.878,494.138 632.452,493.972 632.12,493.641C631.789,493.309 631.623,492.883 631.623,492.362L631.623,489.592C630.392,491.297 628.806,492.599 626.865,493.499C624.923,494.398 622.556,494.848 619.762,494.848C617.016,494.848 614.589,494.221 612.482,492.966C610.375,491.711 608.742,489.888 607.582,487.497C606.422,485.106 605.842,482.206 605.842,478.797L605.842,458.981C605.842,458.46 606.007,458.034 606.339,457.703C606.67,457.371 607.073,457.205 607.546,457.205L615.075,457.205C615.595,457.205 616.022,457.371 616.353,457.703C616.685,458.034 616.85,458.46 616.85,458.981L616.85,478.371C616.85,483.674 619.17,486.325 623.811,486.325C626.036,486.325 627.8,485.627 629.102,484.23C630.404,482.833 631.055,480.88 631.055,478.371L631.055,458.981C631.055,458.46 631.221,458.034 631.552,457.703C631.884,457.371 632.31,457.205 632.831,457.205L640.553,457.205Z" style="fill:none;fill-rule:nonzero;stroke:white;stroke-width:1.94px;"/>
            </g>
            <g transform="matrix(0.816995,0,0,0.816995,-2822.71,-1726.38)">
                <text x="3670.28px" y="2629.05px" style="font-family:'Rubik-Medium', 'Rubik';font-weight:500;font-size:46.894px;fill:white;">PROFILE</text>
            </g>
        </g>
    </g>
</svg>
